<svg width="227" height="169" viewBox="0 0 227 169" fill="none" xmlns="http://www.w3.org/2000/svg">
<path d="M108.797 127.732L82.0855 138.47L49.017 56.0851L71.5915 47.0177C73.8728 46.1047 76.4652 47.2044 77.3881 49.4868L108.797 127.732Z" fill="#F4A640"/>
<path d="M111.939 124.671L60.7863 133.739L48.0421 61.7911L99.1848 52.7237L111.939 124.671Z" fill="#ADCFD8"/>
<path d="M86.3576 62.8908L63.5239 66.9369L63.4305 66.4285L86.2643 62.3721L86.3576 62.8908Z" fill="#55769F"/>
<path d="M90.9307 60.7329L58.4947 66.4908L58.4014 65.9721L90.8374 60.2245L90.9307 60.7329Z" fill="#55769F"/>
<path d="M95.5762 66.8124L56.2133 73.7945L56.1304 73.2757L95.4828 66.2936L95.5762 66.8124Z" fill="#55769F"/>
<path d="M96.0117 69.2815L56.6592 76.2533L56.5659 75.7449L95.9184 68.7628L96.0117 69.2815Z" fill="#55769F"/>
<path d="M96.8828 74.2095L57.5303 81.1916L57.437 80.6832L96.7895 73.7011L96.8828 74.2095Z" fill="#55769F"/>
<path d="M97.3184 76.6786L57.9659 83.6607L57.8726 83.1524L97.225 76.1703L97.3184 76.6786Z" fill="#55769F"/>
<path d="M97.7538 79.1478L58.4013 86.1299L58.308 85.6111L97.6708 78.6394L97.7538 79.1478Z" fill="#55769F"/>
<path d="M99.6825 89.9996L60.33 96.9817L60.2367 96.4734L99.5892 89.4913L99.6825 89.9996Z" fill="#55769F"/>
<path d="M100.139 92.5621L60.7761 99.5442L60.6931 99.0255L100.046 92.0434L100.139 92.5621Z" fill="#55769F"/>
<path d="M100.585 95.1143L61.2322 102.096L61.1389 101.588L100.491 94.606L100.585 95.1143Z" fill="#55769F"/>
<path d="M101.041 97.6768L61.6885 104.659L61.5952 104.14L100.948 97.1685L101.041 97.6768Z" fill="#55769F"/>
<path d="M101.497 100.239L62.1447 107.221L62.0514 106.703L101.404 99.7206L101.497 100.239Z" fill="#55769F"/>
<path d="M101.943 102.791L62.5906 109.774L62.4973 109.265L101.86 102.283L101.943 102.791Z" fill="#55769F"/>
<path d="M102.399 105.354L63.0469 112.336L62.9536 111.817L102.306 104.846L102.399 105.354Z" fill="#55769F"/>
<path d="M110.405 121.59L60.1745 134.818L41.5819 64.1461L91.812 50.9185L110.405 121.59Z" fill="#DAEEF7"/>
<path d="M79.8663 62.1023L57.4266 68.0159L57.3021 67.5075L79.7315 61.6044L79.8663 62.1023Z" fill="#55769F"/>
<path d="M84.2423 59.5917L52.3766 67.9743L52.2522 67.4764L84.1075 59.0833L84.2423 59.5917Z" fill="#55769F"/>
<path d="M89.3648 65.2666L50.7175 75.4441L50.5826 74.9357L89.23 64.7582L89.3648 65.2666Z" fill="#55769F"/>
<path d="M89.9974 67.6839L51.35 77.8614L51.2152 77.3634L89.8729 67.1859L89.9974 67.6839Z" fill="#55769F"/>
<path d="M91.2729 72.5288L52.6255 82.7063L52.4907 82.2083L91.1484 72.0308L91.2729 72.5288Z" fill="#55769F"/>
<path d="M91.9158 74.9565L53.2581 85.134L53.1337 84.6256L91.781 74.4481L91.9158 74.9565Z" fill="#55769F"/>
<path d="M92.5484 77.3841L53.901 87.5616L53.7662 87.0532L92.424 76.8757L92.5484 77.3841Z" fill="#55769F"/>
<path d="M95.3584 88.0388L56.7007 98.2163L56.5763 97.7079L95.2236 87.5408L95.3584 88.0388Z" fill="#55769F"/>
<path d="M96.0118 90.5495L57.3644 100.727L57.2296 100.229L95.8873 90.0515L96.0118 90.5495Z" fill="#55769F"/>
<path d="M96.6753 93.0705L58.028 103.238L57.8932 102.74L96.5405 92.5621L96.6753 93.0705Z" fill="#55769F"/>
<path d="M97.339 95.5812L58.6917 105.759L58.5569 105.25L97.2042 95.0728L97.339 95.5812Z" fill="#55769F"/>
<path d="M98.0027 98.0918L59.345 108.269L59.2102 107.761L97.8679 97.5834L98.0027 98.0918Z" fill="#55769F"/>
<path d="M98.6559 100.602L60.0086 110.78L59.8738 110.282L98.5315 100.104L98.6559 100.602Z" fill="#55769F"/>
<path d="M99.3196 103.113L60.6723 113.291L60.5375 112.793L99.1848 102.615L99.3196 103.113Z" fill="#55769F"/>
<path d="M98.6559 131.809L44.8794 153.419L13.5115 75.278L58.702 47.3808C61.2426 45.8142 64.5816 46.9139 65.6911 49.6839L98.6559 131.809Z" fill="#FEB546"/>
<path d="M27.5208 140.773L19.8474 140.628C18.0776 137.411 16.5395 134.403 15.2329 131.602C23.9019 129.599 31.2124 130.419 37.2993 132.764L40.6591 140.928L41.3849 134.641C51.4503 140.078 58.5569 148.547 62.7048 160.049C44.9106 158.154 34.1297 156.331 30.3621 154.581C28.1741 153.565 25.4262 149.902 22.8649 145.794C24.2268 144.501 25.7788 142.827 27.5208 140.773Z" fill="#FF5B7E"/>
<path d="M15.2329 131.602C38.0736 141.216 53.8975 150.698 62.7048 160.049C44.9106 158.154 34.1297 156.331 30.3621 154.581C28.1741 153.565 25.4262 149.903 22.8649 145.794C24.2268 144.501 25.7788 142.827 27.5208 140.773L19.8474 140.628C18.0776 137.411 16.5395 134.403 15.2329 131.602Z" fill="#E03268"/>
<path d="M16.332 154.654C20.9361 151.843 25.592 150.338 30.1028 149.737C30.9808 150.836 31.959 152.029 33.0374 153.316L33.2137 149.467C44.7308 148.941 55.2628 152.541 64.8097 160.267C54.8031 166.574 46.2586 168.317 39.2695 167.747C38.993 166.848 38.6577 165.731 38.2636 164.396L37.0297 167.487C33.6803 166.958 30.725 165.921 28.1637 164.634C28.5992 163.569 29.0486 162.425 29.5117 161.2L25.7891 163.317C21.6274 160.772 18.4716 157.884 16.3217 154.654H16.332Z" fill="#FF5B7E"/>
<path d="M39.2695 167.747C38.993 166.848 38.6577 165.731 38.2636 164.396L37.0297 167.487C33.6803 166.958 30.725 165.921 28.1637 164.634C28.5992 163.569 29.0486 162.425 29.5117 161.2L25.7891 163.317C21.6274 160.772 18.4716 157.884 16.3217 154.654C29.7468 153.105 45.9095 154.976 64.8097 160.267C54.8031 166.574 46.2586 168.317 39.2695 167.747Z" fill="#E03268"/>
<path d="M123.864 52.2153C124.144 57.0499 124.01 61.6251 122.807 63.7104C120.74 67.3207 112.99 75.0394 99.5582 86.8665C96.309 75.074 97.225 64.0527 102.306 53.8026L106.516 58.5127L104.556 49.9122C108.175 44.4863 113.671 39.5895 121.905 36.2177C122.458 39.254 122.938 42.6015 123.346 46.2603L117.155 50.8044C119.762 51.4753 121.998 51.9456 123.864 52.2153Z" fill="#02CCC0"/>
<path d="M123.346 46.2603L117.155 50.8044C119.762 51.4753 121.998 51.9456 123.864 52.2153C124.144 57.0499 124.01 61.6251 122.807 63.7104C120.74 67.3207 112.99 75.0394 99.5582 86.8665C101.356 74.1403 108.804 57.2574 121.905 36.2177C122.458 39.254 122.938 42.6015 123.346 46.2603Z" fill="#06BFAD"/>
<path d="M131.579 68.2025L127.318 68.6279C128.403 69.361 129.429 70.0389 130.397 70.6613C129.049 73.1824 127.245 75.7449 124.808 78.1103L122.008 76.2947C122.465 77.6158 122.838 78.7224 123.128 79.6146C117.746 84.1172 109.772 87.6238 97.9613 88.2463C101.3 76.4262 107.823 67.4072 117.529 61.1893L119.893 64.2291C120.031 62.5553 120.145 61.0164 120.235 59.6124C124.259 57.5063 128.925 56.0435 134.317 55.67C134.428 59.5501 133.515 63.7276 131.579 68.2025Z" fill="#02CCC0"/>
<path d="M97.9613 88.2463C110.343 73.0164 122.461 62.1576 134.317 55.67C134.428 59.5501 133.515 63.7276 131.579 68.2025L127.318 68.6279C128.403 69.361 129.429 70.0389 130.397 70.6613C129.049 73.1824 127.245 75.7449 124.808 78.1103L122.008 76.2947C122.465 77.6158 122.838 78.7224 123.128 79.6146C117.746 84.1172 109.772 87.6238 97.9613 88.2463Z" fill="#06BFAD"/>
<path d="M184.226 97.8739L93.1186 97.8947C88.3072 97.8947 84.3978 94.4296 84.3978 90.1552V85.2377C84.3978 80.9633 88.3072 77.4982 93.1186 77.4982H185.252C186.071 77.4982 186.828 77.7472 187.43 78.1622H183.749L184.226 97.8739Z" fill="#E03268"/>
<path d="M100.823 97.8947H98.8738C94.0519 97.8947 90.1426 94.4296 90.1426 90.1552V85.2377C90.1426 80.9633 94.0519 77.4982 98.8738 77.4982H100.854C96.0325 77.4982 92.1232 80.9633 92.1232 85.2377V90.1552C92.1232 94.4296 96.0221 97.8843 100.823 97.8947Z" fill="#FEB546"/>
<path d="M122.402 97.8947H120.453C115.631 97.8947 111.722 94.4296 111.722 90.1552V85.2377C111.722 80.9633 115.631 77.4982 120.453 77.4982H122.433C117.612 77.4982 113.702 80.9633 113.702 85.2377V90.1552C113.702 94.4296 117.591 97.8843 122.402 97.8947Z" fill="#FEB546"/>
<path d="M188.799 77.519V78.7536H188.56C181.163 79.051 177.34 79.2481 177.091 79.3449C176.849 79.4417 174.831 81.3783 171.036 85.1547L173.98 95.4152L188.56 96.6393H188.799V97.8843H131.445C126.84 97.8843 123.097 94.5644 123.097 90.4769V84.9264C123.097 80.8285 126.84 77.519 131.445 77.519H188.799Z" fill="#FF5B7E"/>
<path d="M188.57 96.6393H132.616C128.386 96.6393 124.953 93.5892 124.953 89.8336V85.5593C124.953 81.8037 128.386 78.7639 132.616 78.7639H188.57C186.241 80.7005 185.076 83.6676 185.076 87.6653C185.076 92.6935 186.241 95.6849 188.57 96.6393Z" fill="#DAEEF7"/>
<g style="mix-blend-mode:multiply">
<path d="M132.616 78.7639H188.57C165.287 79.0544 148.285 80.1887 137.563 82.1668C130.677 83.4325 127.069 87.3748 125.181 91.4728C125.036 90.9437 124.953 90.4042 124.953 89.8336V85.5593C124.953 81.8037 128.386 78.7639 132.616 78.7639Z" fill="#DAEEF7"/>
</g>
<path d="M182.774 143.605L79.6589 143.636C74.2045 143.636 69.7871 139.3 69.7871 133.946V127.794C69.7871 122.441 74.2045 118.104 79.6589 118.104H183.935C184.868 118.104 185.719 118.416 186.393 118.934H182.235L182.774 143.605Z" fill="#284C7A"/>
<path d="M187.948 118.125V119.671L187.679 119.681C179.307 120.048 174.979 120.293 174.696 120.418C174.419 120.535 172.135 122.96 167.842 127.69L171.181 140.524L187.679 142.059H187.948V143.615H123.035C117.819 143.615 113.588 139.466 113.588 134.351V127.39C113.588 122.275 117.819 118.125 123.035 118.125H187.948Z" fill="#55769F"/>
<path d="M187.689 142.059H124.362C119.571 142.059 115.683 138.252 115.683 133.552V128.199C115.683 123.499 119.571 119.681 124.362 119.681H187.689C185.055 122.109 183.738 125.823 183.738 130.824C183.738 137.124 185.055 140.87 187.689 142.059Z" fill="#DAEEF7"/>
<g style="mix-blend-mode:multiply">
<path d="M124.362 119.681H187.689C161.336 120.048 142.094 121.466 129.962 123.935C122.174 125.522 118.078 130.46 115.942 135.586C115.776 134.932 115.683 134.247 115.683 133.552V128.199C115.683 123.499 119.571 119.681 124.362 119.681Z" fill="#DAEEF7"/>
</g>
<path d="M66.3445 98.4964H62.1863C62.8603 98.0918 63.7106 97.8428 64.6439 97.8428H168.962C174.416 97.8428 178.844 101.287 178.844 105.53V110.417C178.844 114.66 174.416 118.104 168.962 118.104L65.8053 118.084L66.3445 98.4964Z" fill="#02CCC0"/>
<path d="M125.565 97.8635C130.791 97.8635 135.022 101.152 135.022 105.219V110.738C135.022 114.795 130.791 118.084 125.565 118.084H60.6307V116.849H60.9003L77.4087 115.635L80.7477 105.458C76.4547 101.702 74.1665 99.7759 73.883 99.6791C73.6065 99.5822 69.2789 99.3886 60.9003 99.0981L60.6307 99.0877V97.8635H125.565Z" fill="#06BFAD"/>
<path d="M64.8408 107.937C64.8408 103.967 63.5239 101.021 60.89 99.0981H124.238C129.028 99.0981 132.917 102.127 132.917 105.852V110.095C132.917 113.83 129.028 116.849 124.238 116.849H60.89C63.5239 115.908 64.8408 112.938 64.8408 107.937Z" fill="#DAEEF7"/>
<g style="mix-blend-mode:multiply">
<path d="M132.917 105.852V110.095C132.917 110.655 132.834 111.205 132.668 111.724C130.532 107.657 126.436 103.736 118.638 102.48C106.506 100.516 87.2563 99.3886 60.89 99.0981H124.238C129.028 99.0981 132.917 102.127 132.917 105.852Z" fill="#DAEEF7"/>
</g>
<g opacity="0.5">
<path d="M159.733 110.417V105.53C159.733 101.287 155.305 97.8428 149.85 97.8428H159.753C165.208 97.8428 169.636 101.287 169.636 105.53V110.417C169.636 114.66 165.208 118.104 159.753 118.104H149.985C155.377 118.052 159.733 114.629 159.733 110.417Z" fill="#55769F"/>
</g>
<path d="M58.474 144.425H53.984C54.7202 143.958 55.6328 143.688 56.6386 143.688H169.086C174.976 143.688 179.746 147.537 179.746 152.278V157.735C179.746 162.476 174.976 166.325 169.086 166.325L57.8933 166.294L58.474 144.425Z" fill="#FEB546"/>
<path d="M122.319 143.709C127.94 143.709 132.502 147.392 132.502 151.926V158.088C132.502 162.622 127.94 166.305 122.319 166.305H52.3041V164.925H52.5944L70.399 163.566L73.9868 152.185C69.362 147.994 66.8975 145.846 66.5933 145.742C66.2961 145.632 61.6298 145.414 52.5944 145.089L52.3041 145.078V143.709H122.319Z" fill="#F4A640"/>
<path d="M56.8459 154.965C56.8459 150.532 55.4252 147.24 52.584 145.089H120.878C126.052 145.089 130.242 148.471 130.242 152.631V157.383C130.242 161.543 126.052 164.925 120.878 164.925H52.584C55.4252 163.874 56.8459 160.554 56.8459 154.965Z" fill="#DAEEF7"/>
<g style="mix-blend-mode:multiply">
<path d="M130.242 152.631V157.383C130.242 158.005 130.138 158.607 129.962 159.188C127.66 154.644 123.242 150.266 114.843 148.865C101.763 146.673 81.0104 145.414 52.584 145.089H120.878C126.052 145.089 130.242 148.471 130.242 152.631Z" fill="#DAEEF7"/>
</g>
<path d="M214.878 168.67H25.2187C24.6588 168.67 24.2025 168.214 24.2025 167.653V167.187C24.2025 166.626 24.6588 166.17 25.2187 166.17H214.878C215.438 166.17 215.894 166.626 215.894 167.187V167.653C215.894 168.214 215.438 168.67 214.878 168.67Z" fill="#C4DFE8"/>
<path d="M23.0411 83.8993L59.656 62.953L64.6023 72.757L27.1371 92.5828L23.0411 83.8993Z" fill="#F4A640"/>
<path d="M94.5704 27.2644C93.0771 27.3958 92.2337 28.4125 92.0402 30.3146C91.8466 28.4125 90.9998 27.3958 89.4996 27.2644C90.9998 27.133 91.8466 26.1163 92.0402 24.2143C92.2337 26.1163 93.0771 27.133 94.5704 27.2644Z" fill="#02CCC0"/>
<path d="M56.5866 6.39075C54.5957 6.56366 53.4723 7.91582 53.2165 10.4472C52.9608 7.91582 51.8339 6.56366 49.8361 6.39075C51.8339 6.21784 52.9608 4.86569 53.2165 2.33429C53.4723 4.86569 54.5957 6.21784 56.5866 6.39075Z" fill="#FEB546"/>
<path d="M39.7985 38.9981C38.4573 39.1157 37.7004 40.0252 37.5275 41.7266C37.3547 40.0252 36.6012 39.1157 35.267 38.9981C36.6012 38.8805 37.3547 37.971 37.5275 36.2696C37.7004 37.971 38.4573 38.8805 39.7985 38.9981Z" fill="#FF5B7E"/>
<path d="M219.005 101.132C217.007 101.304 215.88 102.657 215.625 105.188C215.369 102.657 214.242 101.304 212.244 101.132C214.242 100.959 215.369 99.6065 215.625 97.0751C215.88 99.6065 217.007 100.959 219.005 101.132Z" fill="#FF5B7E"/>
<path d="M6.76095 67.715C4.76308 67.8879 3.63626 69.24 3.38048 71.7714C3.12469 69.24 1.99787 67.8879 0 67.715C1.99787 67.5421 3.12469 66.1899 3.38048 63.6585C3.63626 66.1899 4.76308 67.5421 6.76095 67.715Z" fill="#02CCC0"/>
<path d="M227 63.6585C225.002 63.8314 223.875 65.1836 223.62 67.715C223.364 65.1836 222.237 63.8314 220.239 63.6585C222.237 63.4856 223.364 62.1335 223.62 59.6021C223.875 62.1335 225.002 63.4856 227 63.6585Z" fill="#02CCC0"/>
<path d="M133.612 4.05646C131.621 4.22937 130.497 5.58153 130.242 8.11293C129.986 5.58153 128.859 4.22937 126.861 4.05646C128.859 3.88355 129.986 2.5314 130.242 0C130.497 2.5314 131.621 3.88355 133.612 4.05646Z" fill="#FF5B7E"/>
<path d="M196.202 34.2569C195.117 34.3676 194.505 35.2183 194.367 36.8091C194.222 35.2183 193.61 34.3676 192.532 34.2569C193.61 34.1463 194.222 33.2921 194.367 31.6944C194.505 33.2921 195.117 34.1463 196.202 34.2569Z" fill="#FEB546"/>
<path d="M60.1745 164.52L59.6664 164.863L59.7597 164.987C59.3311 165.457 59.0857 165.693 59.0235 165.693C58.9613 165.693 57.8932 165.713 55.8193 165.755L54.8653 165.527L54.7408 164.977L57.3229 163.732L57.9658 148.73L63.0158 148.471L60.1745 164.52Z" fill="#FFC0BB"/>
<path d="M76.7347 165.579C76.1264 165.966 75.5837 166.094 75.1067 165.962C74.3808 165.765 73.2609 165.641 72.8772 165.579C72.4936 165.506 71.384 165.496 71.4255 165.298C71.4359 165.226 71.4981 164.998 71.5811 164.728L71.27 164.52L68.4287 148.471L74.6919 148.45L74.1216 163.732C74.1631 163.718 75.0272 164.133 76.714 164.977L76.7347 165.579Z" fill="#FFC0BB"/>
<path d="M75.5525 110.624C74.7955 111.029 75.5214 113.187 74.1008 114.058C72.2343 115.189 71.021 113.56 69.7767 114.152C68.5323 114.753 68.0657 115.905 65.5148 115.189C63.8142 114.712 63.5065 111.648 64.5919 105.997C65.1104 105.278 65.6254 104.569 66.1369 103.87C66.0263 103.172 65.6669 101.104 65.0585 97.6665C67.3882 96.878 69.5831 97.3725 71.6432 99.15C72.6594 100.032 73.3438 101.215 73.6549 102.522C73.7586 102.958 73.9141 103.424 74.1215 103.787C75.4384 106.091 76.1539 105.333 76.8798 107.232C77.6679 109.286 76.2991 110.209 75.5525 110.624Z" fill="#FF5500"/>
<path d="M65.9814 106.557C66.0022 112.312 65.1311 115.265 63.3683 115.417C60.7344 115.646 60.4856 114.432 59.376 113.623C58.2665 112.803 56.7629 114.183 55.1452 112.72C53.9113 111.6 55.0208 109.608 54.3572 109.068C53.6935 108.529 52.5321 107.367 53.6831 105.499C54.015 104.96 54.3468 104.649 54.6994 104.41C54.6994 104.41 57.5925 102.874 59.9152 94.3881L62.9639 93.5685C64.9341 92.9529 65.9607 92.6486 66.0437 92.6555C66.1266 92.6693 66.8559 92.8077 68.2316 93.0705L61.4292 100.644C62.5284 101.266 63.6898 101.93 63.7416 101.941C63.7969 101.968 64.5435 103.507 65.9814 106.557Z" fill="#FF5500"/>
<path d="M75.2829 117.42C76.7761 124.564 77.3084 128.524 76.8798 129.299C76.4443 130.066 73.3784 130.571 67.682 130.813L67.3191 117.057L70.5751 112.129L75.2829 117.42Z" fill="#FF5B7E"/>
<path d="M73.3231 133.199L75.677 159.852C73.3127 160.896 71.2941 160.792 69.6212 159.541L66.4896 135.586L64.4053 135.897L62.0099 160.059C60.0605 160.896 58.1801 160.827 56.3689 159.852L57.6236 132.193L59.5109 132.1C59.179 130.658 58.8368 128.967 58.982 128.697C59.1618 128.365 59.7044 127.282 60.61 125.45C63.5757 124.142 65.1692 123.496 65.3904 123.51C65.6116 123.53 67.4747 124.177 70.9796 125.45L72.5765 129.828C72.9706 130.907 73.2194 132.048 73.3231 133.199Z" fill="#07085B"/>
<path d="M62.3522 108.881C63.9076 108.556 66.1302 108.494 69.0198 108.695C71.9095 108.902 71.2423 109.819 67.0185 111.444C65.5322 111.395 64.7579 111.368 64.6957 111.361C64.6335 111.347 63.8523 110.521 62.3522 108.881Z" fill="#FFC0BB"/>
<path d="M67.8687 113.187H64.0216V106.423H67.8687V113.187Z" fill="#FFC0BB"/>
<path d="M64.0216 107.242V105.281H67.8687V107.585C66.0748 107.937 64.8512 107.688 64.0216 107.242Z" fill="#F99893"/>
<path d="M73.7483 101.132C73.3128 102.013 72.3899 102.449 71.6848 102.096C71.5811 102.048 71.4912 101.989 71.4152 101.92C71.0107 104.794 68.6154 106.952 65.7949 106.921C62.9743 106.952 60.579 104.794 60.1745 101.92C60.0916 101.989 60.0017 102.048 59.9049 102.096C59.1998 102.449 58.2769 102.013 57.8414 101.132C57.4059 100.25 57.6236 99.2537 58.3288 98.901C58.7021 98.7246 59.1272 98.7558 59.5109 98.9529C59.3761 95.467 62.2174 92.5414 65.7949 92.6659C69.3723 92.5414 72.2032 95.467 72.0788 98.9529C72.4625 98.7558 72.8876 98.7246 73.2609 98.901C73.9661 99.2537 74.1838 100.25 73.7483 101.132Z" fill="#FFC0BB"/>
<path d="M64.2083 100.187C64.2187 100.478 64.0009 100.727 63.7106 100.748C63.4202 100.758 63.1713 100.54 63.1506 100.25C63.1299 99.9488 63.358 99.6999 63.6483 99.6895C63.9387 99.6687 64.1876 99.897 64.2083 100.187Z" fill="#333333"/>
<path d="M68.7604 100.239C68.7708 100.53 68.553 100.779 68.2627 100.789C67.962 100.81 67.7131 100.582 67.7027 100.291C67.682 100.001 67.9101 99.7517 68.2005 99.7414C68.4908 99.7206 68.7397 99.9489 68.7604 100.239Z" fill="#333333"/>
<path d="M64.789 99.1085C64.5193 99.0151 64.2705 98.9425 64.0216 98.901C63.7727 98.8526 63.5273 98.8422 63.2854 98.8699C63.0365 98.8906 62.798 98.9425 62.5699 99.0462L62.4765 99.0774C62.4454 99.0981 62.4247 99.1085 62.3936 99.1189L62.2173 99.2122C62.0929 99.2641 61.9892 99.3471 61.8544 99.399C61.927 99.2849 61.9995 99.1707 62.0929 99.0566C62.1966 98.9632 62.3003 98.8491 62.4247 98.7765C62.6528 98.6105 62.9535 98.5171 63.2439 98.486C63.5342 98.4549 63.835 98.4964 64.1046 98.6105C64.3742 98.7143 64.6127 98.8803 64.789 99.1085Z" fill="#FF5500"/>
<path d="M66.9147 99.0981C67.091 98.8699 67.3295 98.7039 67.5991 98.5898C67.8583 98.486 68.159 98.4341 68.4597 98.4653C68.7501 98.4964 69.0404 98.5898 69.2789 98.7558C69.4034 98.8284 69.4967 98.9425 69.6004 99.0359C69.7041 99.1396 69.7767 99.2537 69.8493 99.3782C69.7248 99.316 69.6108 99.2434 69.4863 99.1811L69.31 99.0981C69.2789 99.0877 69.2582 99.067 69.2271 99.0566L69.1338 99.0255C68.9056 98.9217 68.6671 98.8699 68.4183 98.8491C68.1763 98.8215 67.9309 98.8318 67.682 98.8803C67.4332 98.9321 67.1843 99.0047 66.9147 99.0981Z" fill="#FF5500"/>
<path d="M66.303 100.239C66.3444 100.364 66.3859 100.488 66.4481 100.602C66.5103 100.727 66.5726 100.841 66.6659 100.924C66.78 101.007 66.8836 101.069 66.9459 101.246C66.9977 101.422 66.9562 101.609 66.8629 101.733C66.6866 102.003 66.3859 102.107 66.1059 102.128C66.3548 102.003 66.5829 101.847 66.6866 101.63C66.7281 101.526 66.7488 101.422 66.7074 101.329C66.6659 101.235 66.6037 101.204 66.4689 101.09C66.3444 100.976 66.2718 100.841 66.22 100.706C66.1647 100.568 66.1232 100.43 66.0956 100.291C66.0437 100.021 66.0333 99.7414 66.0541 99.4612C66.137 99.731 66.2096 99.9903 66.303 100.239Z" fill="#F99893"/>
<path d="M64.3224 102.781C64.4676 102.885 64.6197 102.975 64.7787 103.051C64.9307 103.134 65.0897 103.203 65.2556 103.258C65.5875 103.372 65.9297 103.445 66.2822 103.445C66.6244 103.445 66.9666 103.372 67.2881 103.248C67.6095 103.113 67.9103 102.916 68.1799 102.698C68.0623 102.83 67.931 102.947 67.7858 103.051C67.6406 103.165 67.4851 103.248 67.3296 103.331C67.1636 103.407 66.9908 103.466 66.8111 103.507C66.6383 103.549 66.4585 103.57 66.2719 103.57C65.9193 103.559 65.5564 103.487 65.2245 103.341C64.8927 103.206 64.5816 103.02 64.3224 102.781Z" fill="#F99893"/>
<path d="M77.6057 116.725C75.8429 118.329 74.125 119.232 72.4521 119.432C71.6294 123.202 71.1386 125.208 70.9796 125.45C70.1362 125.844 69.0992 126.145 67.8687 126.352C67.2051 126.487 66.5414 126.539 65.9089 126.539C65.8743 126.539 65.8363 126.539 65.7948 126.539C65.7533 126.539 65.7153 126.539 65.6807 126.539C65.0482 126.539 64.3846 126.487 63.7209 126.352C62.4904 126.145 61.4534 125.844 60.61 125.45C60.4441 125.208 59.9533 123.202 59.1376 119.432C57.4577 119.232 55.7398 118.329 53.9839 116.725C55.3734 113.744 56.7629 111.579 58.1524 110.23C59.542 108.881 61.2011 108.349 63.1298 108.632C63.4513 108.954 63.7727 109.203 64.0942 109.379C64.5505 109.618 65.1208 109.815 65.7637 109.836C65.7706 109.836 65.781 109.836 65.7948 109.836C65.8086 109.836 65.819 109.836 65.8259 109.836C66.4688 109.815 67.0392 109.618 67.4954 109.379C67.8169 109.203 68.1383 108.954 68.4598 108.632C70.3816 108.349 72.0373 108.881 73.4268 110.23C74.8232 111.579 76.2162 113.744 77.6057 116.725Z" fill="#02CCC0"/>
<path d="M66.023 123.925C66.5345 123.842 66.9355 123.99 67.2258 124.371L67.1947 125.833L66.2407 126.28C65.4595 125.609 65.1001 125.266 65.1623 125.252C65.2176 125.232 65.5045 124.789 66.023 123.925Z" fill="#E03268"/>
<path d="M68.4287 133.5L55.9541 137.111L54.7512 127.981L67.2258 124.371L68.4287 133.5Z" fill="#E03268"/>
<path d="M66.0437 124.184L66.8836 124.537L67.962 133.148L56.0163 136.571L54.9275 135.648L66.0437 124.184Z" fill="#DAEEF7"/>
<g style="mix-blend-mode:multiply">
<path d="M67.9621 133.148L67.1118 132.401L65.546 130.689L65.6497 125.979L66.0438 124.184L66.8941 124.526L67.9621 133.148Z" fill="#DAEEF7"/>
</g>
<path d="M67.1118 132.401L54.6373 136.011L53.5485 127.535L66.023 123.925L67.1118 132.401Z" fill="#FF5B7E"/>
<path d="M60.9834 114.536C60.7 114.888 60.4373 115.255 60.1953 115.635C59.9464 116.009 59.7391 116.403 59.5628 116.818C59.3761 117.223 59.2413 117.648 59.1687 118.094C59.0961 118.53 59.0858 118.986 59.1376 119.432C59.0028 118.997 58.951 118.53 59.0028 118.073C59.0547 117.606 59.1791 117.16 59.3657 116.735C59.5524 116.31 59.7805 115.905 60.0501 115.542C60.3301 115.168 60.6308 114.826 60.9834 114.536Z" fill="#DAEEF7"/>
<path d="M60.9833 131.239C61.004 131.384 60.9003 131.446 59.6041 131.374C59.5212 131.374 59.459 131.456 59.5004 131.529C59.8323 132.1 60.8485 133.895 60.7241 134.009C60.5789 134.144 59.6249 132.567 59.4382 132.608C59.2619 132.639 60.2263 134.154 60.0397 134.278C59.853 134.403 59.0234 132.992 58.9301 133.013C58.8368 133.044 59.4901 134.476 59.4175 134.61C59.3553 134.745 58.4739 133.303 58.3494 133.293C58.225 133.293 58.505 134.496 58.4013 134.538C58.2976 134.569 58.2354 134.61 56.8355 132.079C56.7802 131.927 56.7179 131.764 56.6488 131.591L56.6281 131.602C52.6738 127.085 51.865 122.189 54.2016 116.911C54.7616 117.389 56.3585 118.644 58.0902 119.194C57.2191 121.694 56.2029 126.228 58.4013 129.942C59.4071 130.409 60.9626 131.135 60.9833 131.239Z" fill="#FFC0BB"/>
<path d="M73.095 109.027C70.3989 118.727 73.655 121.58 73.6653 121.663L73.178 123.914C68.7605 121.037 67.9517 115.77 70.7515 108.114C70.8656 107.782 71.2181 107.616 71.5292 107.761L72.7943 108.342C73.0535 108.466 73.1676 108.757 73.095 109.027Z" fill="#E03268"/>
<path d="M79.41 135.43C79.3167 135.461 78.7567 134.434 78.6634 134.517C78.5805 134.6 78.8604 136.177 78.736 136.125C78.6012 136.073 78.1657 134.642 78.0827 134.683C77.9998 134.724 78.2901 136.25 78.0827 136.281C77.8753 136.301 77.6057 134.621 77.4605 134.714C77.305 134.807 77.6161 136.519 77.4294 136.519C77.2635 136.509 76.8591 134.6 76.7347 133.998C76.7243 133.915 76.6206 133.884 76.5688 133.946C75.6977 134.818 75.5733 134.828 75.5007 134.714C75.4592 134.631 76.0192 133.314 76.4443 132.349C76.0295 127.338 73.6342 121.819 72.4935 119.432C74.3186 119.194 76.1955 117.866 77.0769 117.16C78.2486 121.601 78.6012 129.164 78.6738 131.29L78.8086 132.235C78.857 132.401 78.9123 132.556 78.9745 132.701C79.5656 135.378 79.5033 135.388 79.41 135.43Z" fill="#FFC0BB"/>
<path d="M58.4013 98.8699C58.1455 94.063 60.693 91.5005 66.0437 91.1823C65.8777 95.8993 63.7001 98.4895 59.5108 98.9529L59.0235 98.0088L58.4013 98.8699Z" fill="#FF5500"/>
<path d="M66.0436 91.1823C70.385 90.9402 72.6697 93.4786 72.8979 98.7973C72.5868 98.7696 72.3137 98.8215 72.0787 98.9529C68.636 98.0883 66.4895 95.9892 65.6392 92.6555L66.0436 91.1823Z" fill="#FF5500"/>
<path d="M60.2056 164.396V165.952C60.2056 166.159 60.0397 166.325 59.8323 166.325H54.0772C53.6521 166.325 53.4965 165.776 53.8491 165.558L54.7409 164.977C55.0001 165.371 55.6223 165.651 56.9288 165.527C58.9613 165.319 59.8323 164.78 60.2056 164.396Z" fill="#07085B"/>
<path d="M74.5157 165.527C75.8222 165.651 76.4444 165.371 76.714 164.977L77.5954 165.558C77.948 165.776 77.7925 166.325 77.3777 166.325H71.6122C71.4048 166.325 71.2493 166.159 71.2493 165.952V164.396C71.6122 164.78 72.4832 165.319 74.5157 165.527Z" fill="#07085B"/>
<g style="mix-blend-mode:multiply">
<path d="M195.031 113.934L201.688 114.463L199.541 119.847L196.182 119.578L194.782 124.07C194.44 123.914 194.18 123.8 194.139 123.769C194.035 123.696 193.662 121.466 193.34 119.37L195.031 113.934Z" fill="#DAEEF7"/>
</g>
<path d="M201.792 163.472L204.871 165.433C205.203 165.651 205.048 166.17 204.654 166.17H199.179C198.981 166.17 198.826 166.014 198.826 165.817V163.472C200.001 164.06 200.99 164.06 201.792 163.472Z" fill="#E03268"/>
<path d="M189.452 63.6585C189.466 63.7623 188.536 64.6614 186.663 66.3559L185.377 66.3144L184.962 65.4637C185.086 65.2977 185.159 64.862 185.18 64.1565C185.729 61.262 185.802 61.2827 185.916 61.2931C186.02 61.2931 186.134 62.5381 186.248 62.4966C186.372 62.4551 186.766 60.7744 186.87 60.8885C186.984 61.0026 186.797 62.6003 186.901 62.5899C187.005 62.5796 187.357 60.9507 187.575 61.013C187.793 61.0752 187.337 62.8493 187.534 62.8285C187.72 62.7974 188.135 60.9715 188.322 61.0649C188.488 61.1375 188.062 63.1917 187.928 63.8453C187.907 63.9282 187.99 63.9905 188.073 63.9594C189.307 63.4821 189.431 63.5133 189.452 63.6585Z" fill="#FFC0BB"/>
<path d="M201.377 64.6026C201.429 64.6648 201.543 64.6441 201.564 64.5611C201.74 63.9179 202.3 61.8948 202.476 61.9052C202.684 61.9156 202.217 63.7311 202.383 63.8349C202.538 63.949 202.943 62.1646 203.161 62.2061C203.378 62.2475 202.953 63.866 203.046 63.9179C203.129 63.9697 203.7 62.4654 203.845 62.4135C203.99 62.3617 203.575 64.0424 203.658 64.1357C203.752 64.2187 204.415 63.1605 204.519 63.202C204.612 63.2539 204.685 63.2643 203.866 66.0965C203.562 66.7328 203.427 67.1547 203.461 67.3622L202.704 67.9225L201.533 67.3726C200.641 65.0141 200.226 63.7934 200.288 63.7104C200.371 63.5859 200.496 63.6066 201.377 64.6026Z" fill="#FFC0BB"/>
<path d="M191.101 87.7483L191.121 92.697L186.331 91.95L187.129 86.3996L191.101 87.7483Z" fill="#FFC0BB"/>
<g opacity="0.6">
<path d="M186.756 88.9517L187.129 86.3996L191.111 88.2152V89.1904C190.157 89.429 188.353 89.6365 186.756 88.9517Z" fill="#FC8D84"/>
</g>
<path d="M182.432 163.213V165.786C182.432 165.993 182.266 166.17 182.048 166.17H176.023C175.588 166.17 175.422 165.599 175.785 165.361L179.165 163.213C180.05 163.856 181.139 163.856 182.432 163.213Z" fill="#E03268"/>
<path d="M176.936 119.463C176.946 118.914 175.515 120.532 175.536 120.096C175.909 114.003 182.048 113.512 193.952 118.623L198.318 121.818L203.233 164.199C201.456 164.711 199.98 164.755 198.805 164.334L187.907 128.022L186.569 127.504C182.594 124.73 179.383 122.05 176.936 119.463Z" fill="#07085B"/>
<path d="M175.536 118.021C177.99 120.608 181.668 123.769 186.569 127.504L182.432 164.199C180.462 164.572 178.913 164.455 177.786 163.846C176.127 140.565 175.377 125.291 175.536 118.021Z" fill="#07085B"/>
<path d="M198.318 121.818L199.013 127.867C197.157 128.583 192.625 129.361 189.213 121.891C188.135 119.536 187.865 117.835 188.062 116.621C190.24 117.202 192.203 117.869 193.952 118.623L198.318 121.818Z" fill="#050645"/>
<path d="M181.934 97.1373C182.072 97.1373 183.171 94.7996 185.231 90.1241C186.994 91.3621 189.072 91.5489 191.464 90.6843C201.1 108.321 202.687 118.516 196.223 121.269C189.766 124.021 183.489 123.724 177.392 120.376C176.016 116.801 175.328 114.944 175.328 114.805C175.328 114.598 181.727 97.1373 181.934 97.1373Z" fill="#DAEEF7"/>
<path d="M204.125 66.3351C205.639 71.4671 206.302 76.9207 206.116 82.6959C205.936 88.4711 203.098 93.8105 197.602 98.7142C197.416 100.457 199.04 108.228 202.476 122.026C197.989 124.135 194.222 124.72 191.173 123.779C190.261 119.519 190.357 108.487 191.464 90.6843C194.692 90.1725 197.609 87.3714 200.215 82.2809C200.997 80.7524 201.18 75.8037 200.765 67.4349L204.125 66.3351Z" fill="#55769F"/>
<path d="M172.238 119.93C172.722 116.078 174.751 107.827 178.325 95.1765C173.03 86.0331 175.159 75.7207 184.713 64.2395L187.699 66.2003C184.748 72.2452 183.168 76.7824 182.961 79.8118C182.691 83.7437 182.193 86.7731 185.231 90.1241C184.132 92.7385 182.826 97.1823 181.312 103.455C179.798 109.736 178.871 116.189 178.533 122.814C176.238 121.991 174.139 121.03 172.238 119.93Z" fill="#55769F"/>
<path d="M197.457 98.6831C197.291 98.569 197.084 98.3823 196.887 98.1436C196.275 97.4071 195.964 96.5771 195.746 95.6537C195.871 96.048 196.223 97.1996 196.97 98.071C197.302 98.4445 197.478 98.5794 197.644 98.6831C197.623 98.697 197.609 98.7073 197.602 98.7143C197.595 98.735 197.592 98.7523 197.592 98.7661C197.405 98.8076 197.073 98.818 196.503 98.5171C196.151 98.3304 195.881 98.1022 195.591 97.8532C195.777 97.988 196.171 98.2785 196.534 98.4445C196.793 98.5794 197.177 98.7039 197.457 98.6831Z" fill="white"/>
<path d="M178.429 95.1143C178.678 94.9587 178.896 94.7304 179.082 94.5125C179.694 93.7967 180.026 92.946 180.316 92.0953C180.099 93.0186 179.787 93.8486 179.176 94.5852C178.979 94.8238 178.771 95.0002 178.595 95.135C178.73 95.135 178.896 95.1143 178.999 95.0832C179.179 95.0347 179.352 94.969 179.518 94.886C179.86 94.7304 180.202 94.4918 180.472 94.2947C180.213 94.5126 179.922 94.7615 179.549 94.9587C179.383 95.052 179.207 95.1247 179.03 95.1765C178.833 95.2284 178.647 95.2699 178.439 95.2077L178.325 95.1765L178.429 95.1143Z" fill="white"/>
<path d="M185.46 77.2596L184.464 81.399L183.935 81.0567L184.226 77.6642L185.46 77.2596Z" fill="#07085B"/>
<path d="M184.941 80.704C185.086 81.4717 184.713 82.1979 184.101 82.312C183.479 82.4262 182.867 81.8971 182.722 81.1293C182.566 80.3616 182.95 79.6458 183.562 79.5316C184.174 79.4072 184.796 79.9363 184.941 80.704Z" fill="#F99893"/>
<path d="M184.06 83.8475C183.904 82.8619 183.925 81.8556 184.018 80.9945C184.039 80.8077 184.039 80.621 184.049 80.4342C184.06 79.6873 184.226 78.9195 184.547 78.1622C185.605 75.7242 188.187 74.251 190.821 74.5726C194.367 75.0187 196.711 78.3489 196.026 81.7726C196.441 81.6377 196.866 81.6688 197.198 81.9074C197.841 82.3639 197.893 83.3806 197.322 84.1898C196.762 84.9887 195.777 85.2688 195.134 84.8123C195.045 84.7501 194.969 84.6774 194.906 84.5944C194.025 87.4371 191.194 89.2008 188.353 88.5887C186.196 88.1114 184.412 86.327 184.06 83.8475Z" fill="#FFC0BB"/>
<path d="M191.101 80.7974C191.484 80.7974 191.744 81.1812 191.598 81.534C191.526 81.7207 191.329 81.8556 191.121 81.8556C190.738 81.8556 190.478 81.4821 190.624 81.1294C190.696 80.9322 190.893 80.7974 191.101 80.7974Z" fill="#333333"/>
<path d="M186.611 80.123C186.994 80.123 187.243 80.5068 187.108 80.8596C187.025 81.0463 186.839 81.1812 186.631 81.1812C186.248 81.1916 185.988 80.8077 186.134 80.455C186.206 80.2579 186.403 80.1334 186.611 80.123Z" fill="#333333"/>
<path d="M189.089 85.1962C188.799 85.2688 188.488 85.2895 188.176 85.2584C187.845 85.2065 187.575 85.0924 187.316 84.9264C187.067 84.7604 186.88 84.5841 186.673 84.2936C186.88 84.5114 187.108 84.7086 187.357 84.8642C187.616 85.0094 187.896 85.1132 188.187 85.1547C188.488 85.1858 188.778 85.1754 189.079 85.1132C189.327 85.0613 189.649 84.9679 189.919 84.8227C189.67 84.9991 189.39 85.1132 189.089 85.1962Z" fill="#F99893"/>
<path d="M190.945 79.6769C191.225 79.6146 191.526 79.6146 191.816 79.6872C192.096 79.7702 192.376 79.9051 192.573 80.1126C192.791 80.289 192.946 80.5691 193.04 80.8181C192.884 80.7143 192.677 80.5172 192.397 80.3512C192.179 80.2164 191.951 80.123 191.723 80.0607C191.488 79.9985 191.242 79.9708 190.987 79.9777C190.727 79.9777 190.468 80.0089 190.198 80.0607C190.406 79.8636 190.665 79.7391 190.945 79.6769Z" fill="#07085B"/>
<path d="M187.378 79.376C187.136 79.293 186.894 79.2446 186.652 79.2308C186.414 79.21 186.165 79.2204 185.916 79.2826C185.584 79.3553 185.346 79.4694 185.159 79.5213C185.325 79.3241 185.574 79.0959 185.823 79.0025C186.082 78.878 186.383 78.8262 186.683 78.8469C186.974 78.8677 187.264 78.961 187.502 79.1063C187.751 79.2619 187.959 79.459 188.094 79.708C187.855 79.5731 187.617 79.4694 187.378 79.376Z" fill="#07085B"/>
<path d="M188.456 81.2227C188.27 81.5028 188.073 81.7726 187.907 82.0631C187.824 82.1979 187.751 82.3432 187.689 82.4884C187.668 82.5611 187.648 82.644 187.658 82.6855C187.679 82.727 187.741 82.8204 187.772 82.8619C187.969 83.1109 188.228 83.3288 188.487 83.557C188.332 83.4844 188.187 83.391 188.052 83.2976C187.907 83.2043 187.772 83.1005 187.648 82.9657C187.461 82.7893 187.451 82.6752 187.471 82.5714C187.502 82.3639 187.627 82.1357 187.73 81.9593C187.907 81.6585 188.104 81.3887 188.322 81.1294C188.539 80.8596 188.767 80.6106 189.016 80.3824C188.83 80.6625 188.643 80.9426 188.456 81.2227Z" fill="#F99893"/>
<path d="M184.848 74.0435C183.666 73.8153 183.804 73.3415 185.263 72.6222C187.461 71.5536 192.832 70.9208 195.642 73.338C196.278 72.5288 196.88 72.3006 197.447 72.6533C198.007 73.0061 197.709 73.3795 196.555 73.7738C197.35 73.9259 197.824 74.2233 197.976 74.666C198.142 75.1536 197.416 75.0083 197.022 74.8942C197.675 75.164 199.573 76.9588 197.105 81.8556C196.814 81.7173 195.729 80.3063 193.849 77.6227C190.067 78.8677 188.522 78.9749 189.213 77.9444C184.81 79.051 183.14 78.6049 184.205 76.606C182.587 76.364 182.802 75.5098 184.848 74.0435Z" fill="#07085B"/>
<path d="M197.105 81.8555C196.821 81.6342 196.462 81.6065 196.026 81.7725C195.591 81.9316 195.235 82.4988 194.958 83.474C193.527 84.6428 193.161 82.682 193.859 77.5916C194.543 72.591 195.359 73.006 196.306 78.8365L197.105 81.8555Z" fill="#07085B"/>
<path d="M182.452 58.1392L181.53 58.0459C181.695 57.9525 181.882 57.911 182.089 57.9317L205.265 60.2142C206.479 60.3283 207.381 61.3035 207.277 62.3721L207.153 63.617C207.049 64.6856 205.981 65.4637 204.768 65.3496L181.851 63.0879L182.452 58.1392Z" fill="#E03268"/>
<path d="M205.203 63.4199L205.328 62.1853C205.431 61.1064 204.54 60.1415 203.326 60.017L203.824 60.0689C205.037 60.1934 205.929 61.1582 205.825 62.2372L205.701 63.4718C205.597 64.5507 204.529 65.3184 203.316 65.2043L202.829 65.1525C204.042 65.2666 205.1 64.4989 205.203 63.4199Z" fill="#FEB546"/>
<path d="M199.78 62.8908L199.904 61.6562C200.008 60.5772 199.106 59.6124 197.893 59.4879L198.39 59.5398C199.604 59.6539 200.506 60.6291 200.402 61.6977L200.278 62.9323C200.174 64.0112 199.106 64.7893 197.893 64.6648L197.395 64.6233C198.608 64.7375 199.676 63.9594 199.78 62.8908Z" fill="#FEB546"/>
<path d="M195.632 59.2701C196.783 59.3842 197.644 60.3075 197.54 61.3346L197.405 62.7352C197.302 63.7623 196.285 64.5092 195.124 64.3951L180.7 62.9738L180.731 62.6626H180.783L184.485 62.7144L185.48 60.2142C184.616 59.1698 184.156 58.6303 184.101 58.5957C184.039 58.5681 183.081 58.4263 181.229 58.1704L181.167 58.16L181.198 57.8488L195.632 59.2701Z" fill="#FF5B7E"/>
<path d="M181.882 60.4943C181.986 59.4914 181.768 58.7167 181.229 58.1703L195.3 59.5502C196.368 59.6539 197.156 60.5046 197.063 61.4487L196.959 62.5277C196.866 63.4718 195.923 64.1565 194.865 64.0527L180.783 62.6625C181.391 62.4827 181.758 61.76 181.882 60.4943Z" fill="#DAEEF7"/>
<g style="mix-blend-mode:multiply">
<path d="M197.063 61.4487L196.959 62.5277C196.946 62.6729 196.911 62.8078 196.856 62.9323C196.482 61.8533 195.674 60.7744 193.973 60.2868C191.325 59.526 187.077 58.8205 181.229 58.1703L195.3 59.5502C196.368 59.6539 197.156 60.5046 197.063 61.4487Z" fill="#DAEEF7"/>
</g>
<path d="M157.119 94.9898L159.048 97.9984C159.266 98.3304 158.924 98.735 158.561 98.5794L153.563 96.3385C153.386 96.2555 153.314 96.048 153.386 95.8716L154.351 93.7448C155.18 94.7615 156.103 95.1765 157.119 94.9898Z" fill="#55769F"/>
<path d="M150.773 94.9898L152.712 97.9984C152.93 98.3304 152.578 98.735 152.215 98.5794L147.227 96.3385C147.051 96.2555 146.968 96.048 147.051 95.8716L148.005 93.7448C148.834 94.7615 149.757 95.1765 150.773 94.9898Z" fill="#55769F"/>
<path d="M137.22 34.9313L136.691 38.2615L135.572 33.8212C136.615 33.3163 137.162 33.1538 137.21 33.3336C137.258 33.5203 137.262 34.0529 137.22 34.9313Z" fill="#07085B"/>
<path d="M132.305 42.5151L132.896 47.6194L127.815 47.858L128.303 42.1001L132.305 42.5151Z" fill="#FFC0BB"/>
<path d="M128.126 44.1024L128.303 42.1001L132.305 42.5151L132.585 44.9427C130.356 45.7208 128.925 44.8909 128.126 44.1024Z" fill="#F99893"/>
<path d="M137.169 37.525C137.677 37.7636 137.832 38.4794 137.531 39.1123C137.22 39.7451 136.567 40.0564 136.059 39.8074C135.551 39.5688 135.395 38.8529 135.696 38.2201C136.007 37.5872 136.66 37.276 137.169 37.525Z" fill="#F99893"/>
<path d="M134.307 43.0961C133.384 43.8742 132.191 44.3203 130.916 44.258C128.313 44.1439 126.27 41.9549 126.166 39.2886C126.09 39.344 126.007 39.3889 125.918 39.4235C125.254 39.6725 124.466 39.1952 124.155 38.3757C123.854 37.5457 124.134 36.6742 124.798 36.4252C125.14 36.3007 125.524 36.363 125.845 36.5808C126.042 33.4581 128.842 31.1031 132.025 31.5492C134.379 31.8708 136.277 33.7486 136.629 36.1036C136.743 36.8402 136.692 37.5457 136.536 38.1993C136.495 38.3584 136.46 38.5209 136.432 38.6869C136.183 40.2223 135.551 42.1728 134.307 43.0961Z" fill="#FFC0BB"/>
<path d="M132.481 36.944C132.492 37.2552 132.492 37.5561 132.513 37.8569C132.533 38.1474 132.564 38.4587 132.678 38.6662C132.793 38.8321 132.886 38.9359 132.896 39.1434C132.896 39.3509 132.793 39.5272 132.658 39.6414C132.378 39.88 132.015 39.9007 131.724 39.8281C132.025 39.7762 132.316 39.6621 132.481 39.465C132.564 39.3716 132.616 39.2575 132.596 39.1538C132.585 39.0396 132.544 39.0189 132.409 38.8321C132.316 38.6662 132.284 38.4898 132.264 38.3342C132.25 38.1682 132.25 38.0091 132.264 37.8569C132.295 37.5353 132.367 37.2345 132.481 36.944Z" fill="#F99893"/>
<path d="M130.677 37.276C130.708 37.6079 130.428 37.8673 130.107 37.7947C129.91 37.7532 129.754 37.5872 129.734 37.3901C129.702 37.0685 129.982 36.8091 130.304 36.8713C130.501 36.9128 130.656 37.0788 130.677 37.276Z" fill="#333333"/>
<path d="M134.732 37.7428C134.763 38.0644 134.483 38.3238 134.161 38.2512C133.964 38.22 133.809 38.0437 133.788 37.8466C133.757 37.5249 134.037 37.2656 134.358 37.3278C134.555 37.3693 134.711 37.5353 134.732 37.7428Z" fill="#333333"/>
<path d="M129.889 40.5647C130.014 40.6754 130.141 40.7756 130.273 40.8656C130.411 40.9555 130.553 41.035 130.698 41.1042C130.988 41.2494 131.299 41.3532 131.621 41.3947C131.932 41.4258 132.264 41.405 132.575 41.322C132.886 41.2287 133.176 41.0938 133.456 40.9174C133.156 41.1768 132.907 41.3013 132.596 41.4154C132.285 41.5192 131.963 41.5503 131.6 41.5088C131.268 41.4673 130.947 41.3532 130.657 41.1872C130.366 41.0212 130.097 40.8137 129.889 40.5647Z" fill="#F99893"/>
<path d="M131.279 36.2904C131.03 36.2074 130.802 36.1555 130.584 36.1244C130.356 36.0829 130.135 36.076 129.92 36.1036C129.713 36.1347 129.495 36.1762 129.288 36.2696C129.132 36.3215 128.748 36.5497 128.655 36.5912C128.769 36.3734 128.935 36.1451 129.153 36.0206C129.36 35.8546 129.62 35.7716 129.879 35.7301C130.148 35.699 130.418 35.7405 130.656 35.8339C130.895 35.9376 131.123 36.0829 131.279 36.2904Z" fill="#07085B"/>
<path d="M133.363 36.5186C133.55 36.3526 133.798 36.2489 134.047 36.197C134.307 36.1555 134.576 36.1659 134.835 36.2489C135.084 36.3319 135.323 36.4771 135.499 36.6742C135.686 36.8402 135.8 37.0996 135.872 37.3278C135.789 37.2656 135.458 36.9751 135.312 36.8921C135.126 36.7572 134.929 36.6742 134.721 36.6016C134.514 36.5394 134.296 36.5013 134.068 36.4875C133.85 36.4875 133.612 36.4979 133.363 36.5186Z" fill="#07085B"/>
<path d="M132.523 67.3519C132.557 67.1997 134.185 67.5213 137.407 68.3167L142.187 68.6591L153.801 68.6072C162.408 70.9934 163.604 79.836 157.389 95.135L153.76 94.9483L152.557 78.432C146.798 78.681 141.607 78.3905 136.982 77.5605C132.35 76.7236 130.387 73.9086 131.092 69.1156C131.206 69.2297 132.461 67.5801 132.523 67.3519Z" fill="#070852"/>
<path d="M126.135 67.3933C126.177 67.2412 127.808 67.5628 131.03 68.3582L135.81 68.7005L147.424 68.6383C156.031 71.0314 157.223 79.874 151.002 95.1661L147.383 94.9898L146.18 78.4734C140.421 78.7224 135.226 78.4284 130.594 77.5916C125.969 76.7616 124.01 73.9501 124.715 69.157C124.829 69.2711 126.084 67.6216 126.135 67.3933Z" fill="#10116B"/>
<path d="M133.456 45.5652C136.643 45.9733 138.641 46.5058 139.45 47.1629C140.259 47.82 142.612 52.9796 146.511 62.6418L141.659 68.3375L131.33 68.4101C126.173 71.1974 121.977 71.2735 118.742 68.6383C113.889 64.696 116.388 50.96 119.198 47.9929C121.071 46.0217 123.674 45.0603 127.006 45.1087C130.041 47.2321 132.191 47.3842 133.456 45.5652Z" fill="#FF5B7E"/>
<path d="M124.207 52.7756C124.373 53.564 124.476 54.3733 124.549 55.1721C124.59 55.5767 124.611 55.9813 124.632 56.3859C124.653 56.7905 124.653 57.1952 124.653 57.5998C124.632 58.409 124.59 59.2182 124.456 60.017C124.321 60.8159 124.124 61.6147 123.75 62.3409C123.999 61.5732 124.124 60.7848 124.207 59.9859C124.3 59.1974 124.331 58.3986 124.341 57.5894C124.352 56.7905 124.341 55.9917 124.31 55.1929C124.283 54.3906 124.248 53.5848 124.207 52.7756Z" fill="white"/>
<path d="M138.506 52.2465C138.724 53.4188 138.952 54.5911 139.19 55.7634C139.429 56.9358 139.678 58.0977 139.958 59.2493C140.238 60.4113 140.549 61.5628 140.922 62.6937C141.119 63.2539 141.327 63.8038 141.575 64.3536C141.814 64.8931 142.104 65.4118 142.488 65.8683C142.052 65.4637 141.721 64.945 141.43 64.4159C141.15 63.8868 140.912 63.3369 140.694 62.7767C140.487 62.2061 140.3 61.6355 140.124 61.0649C139.958 60.4908 139.802 59.9133 139.657 59.3323C139.522 58.741 139.388 58.16 139.273 57.5686C139.159 56.9876 139.045 56.3963 138.952 55.8049C138.755 54.6222 138.599 53.4395 138.506 52.2465Z" fill="white"/>
<path d="M148.098 56.0643L140.736 53.4914C140.736 53.4222 140.736 52.6441 140.736 51.1571C145.561 52.7133 148.267 53.9513 148.855 54.8712L148.098 56.0643Z" fill="#EDEDED"/>
<path d="M148.129 55.3588L139.937 52.4021V50.8978L148.336 54.7779L148.129 55.3588Z" fill="white"/>
<path d="M147.777 55.3588L139.004 54.0102V51.4165L147.87 54.7779L147.777 55.3588Z" fill="#EDEDED"/>
<path d="M148.855 54.5081C149.996 51.8453 150.798 50.2373 151.261 49.684C151.261 51.4338 150.908 53.4119 150.203 55.6182L148.855 54.5081Z" fill="white"/>
<path d="M149.602 54.6845L151.676 49.4453V51.9456L150.255 55.3588L149.602 54.6845Z" fill="#EDEDED"/>
<path d="M150.255 54.7779L152.505 49.684V51.4995L150.255 54.7779Z" fill="white"/>
<path d="M150.255 54.7778L153.096 49.8707V65.5674L150.255 70.4746V54.7778Z" fill="#26426E"/>
<path d="M137.127 52.4021L147.217 54.7779V70.4746L137.127 68.0989V52.4021Z" fill="#55769F"/>
<path d="M147.217 54.7779C148.098 54.3525 149.965 54.4977 150.255 54.7779C150.099 55.6701 147.434 55.8464 147.217 54.7779Z" fill="#E0E0E0"/>
<path d="M147.217 54.7778C147.559 55.2136 149.954 55.2343 150.265 54.7778V70.4746C150.265 70.8584 147.217 70.8584 147.217 70.4746V54.7778Z" fill="#3A5782"/>
<path d="M138.496 64.945C138.361 64.9554 138.403 65.1421 138.434 65.1525C138.942 65.2355 140.248 65.443 140.663 65.6401C141.182 65.8787 139.315 65.5156 138.289 65.5778C138.216 65.5882 138.133 65.775 138.174 65.8372C138.278 65.9721 138.714 66.1277 139.906 66.3974C141.233 66.6948 141.23 66.847 139.896 66.8539C139.778 66.8055 139.149 66.6326 138.009 66.3352C137.946 66.3248 137.853 66.4908 137.946 66.5842C138.091 66.7605 138.444 67.0925 138.952 67.3104C139.367 67.4902 139.412 67.6182 139.087 67.6943C138.292 67.3484 137.666 67.1306 137.21 67.0407C136.702 66.9369 134.244 66.8435 133.239 66.7813L133.425 65.9202L133.446 64.613L133.363 64.3225C134.504 64.3744 137.874 64.4885 138.382 64.5093C139.056 64.5507 140.881 64.8205 140.912 65.0591C140.933 65.277 139.481 64.862 138.496 64.945Z" fill="#FFC0BB"/>
<path d="M123.035 62.1438C123.46 62.2475 123.875 62.3617 124.29 62.4447C124.715 62.5484 125.129 62.621 125.555 62.7144C126.398 62.8666 127.245 63.0014 128.095 63.119C128.956 63.2331 129.806 63.3369 130.656 63.4199C131.517 63.5029 132.378 63.5755 133.218 63.617L133.332 63.6274L133.363 63.7207C133.435 64.0112 133.477 64.2913 133.518 64.5714C133.553 64.8619 133.57 65.149 133.57 65.4325C133.563 65.723 133.536 66.0101 133.487 66.2936C133.435 66.5841 133.352 66.8642 133.238 67.1236L133.228 67.1547L133.218 67.1651L132.274 67.7876C131.963 68.002 131.648 68.2095 131.33 68.41C131.628 68.1749 131.925 67.9432 132.222 67.715L133.114 67.0302L133.093 67.0614C133.183 66.8054 133.245 66.5392 133.28 66.2625C133.314 65.9928 133.328 65.7196 133.321 65.4429C133.311 65.1628 133.29 64.8827 133.249 64.613C133.207 64.3432 133.155 64.0631 133.083 63.8037L133.218 63.9075C132.772 63.8971 132.357 63.866 131.921 63.8349C131.486 63.8037 131.061 63.7726 130.625 63.7207C129.775 63.6377 128.914 63.534 128.064 63.3887C127.207 63.2573 126.356 63.0913 125.513 62.8908C125.098 62.787 124.673 62.6833 124.269 62.5484C123.854 62.4343 123.439 62.289 123.035 62.1438Z" fill="white"/>
<path d="M137.376 34.1117C137.901 36.0275 136.304 35.8235 132.585 33.4996C132.938 35.0903 131.32 34.8863 127.732 32.8875C126.156 35.163 125.23 36.3318 124.953 36.3941C123.792 31.7151 126.115 30.2523 126.716 30.1486C126.363 30.1693 125.71 30.1486 125.949 29.7647C126.17 29.4189 126.633 29.2564 127.338 29.2771C126.426 28.7169 126.246 28.3399 126.799 28.1463C127.352 27.9526 127.822 28.2639 128.209 29.08C131.082 27.5549 135.572 29.1422 137.241 30.4909C138.361 31.3832 138.389 31.8154 137.324 31.7878C138.796 33.4408 138.814 34.2154 137.376 34.1117Z" fill="#07085B"/>
<path d="M126.446 34.122C127.546 29.3359 128.182 29.1595 128.354 33.5929C128.513 37.7635 127.832 39.3543 126.312 38.3652C126.346 37.473 126.201 36.9024 125.876 36.6534C125.558 36.3975 125.25 36.3214 124.953 36.4252L126.446 34.122Z" fill="#07085B"/>
<path d="M100.087 161.169L101.041 163.306C101.124 163.483 101.041 163.69 100.865 163.763L95.8769 166.004C95.514 166.17 95.1614 165.755 95.3792 165.423L97.3079 162.414C98.3311 162.601 99.2574 162.186 100.087 161.169Z" fill="#07085B"/>
<path d="M106.558 160.92L107.512 163.047C107.595 163.223 107.512 163.431 107.335 163.514L102.348 165.755C101.985 165.91 101.632 165.506 101.85 165.174L103.779 162.165C104.802 162.345 105.728 161.93 106.558 160.92Z" fill="#07085B"/>
<path d="M112.116 98.3926C112.109 98.5102 110.529 99.1742 107.377 100.385L105.127 97.0024C106.343 92.9494 108.763 91.2307 112.385 91.8462C112.219 96.086 112.129 98.2681 112.116 98.3926Z" fill="#FF5500"/>
<path d="M121.148 94.5851C122.205 96.1759 123.004 97.286 123.543 97.9154C125.575 100.302 125.845 99.5546 127.11 101.598C128.469 103.808 127.089 105.198 126.301 105.831C125.524 106.474 126.83 108.829 125.368 110.147C123.45 111.88 121.687 110.251 120.36 111.216C119.043 112.191 118.752 113.623 115.631 113.353C113.55 113.173 112.52 109.673 112.541 102.854C114.242 99.2433 115.126 97.4243 115.196 97.3967C115.265 97.369 117.249 96.4318 121.148 94.5851Z" fill="#FF5500"/>
<path d="M111.981 97.6975C112.05 97.7114 113.256 99.3367 115.6 102.574C116.886 109.262 116.523 112.889 114.511 113.457C111.483 114.307 110.934 112.948 109.461 112.232C107.989 111.527 106.547 113.457 104.349 112.118C102.659 111.091 103.519 108.529 102.628 108.051C101.736 107.574 100.118 106.464 101.051 104.036C101.912 101.796 102.762 102.677 104.318 99.9592C104.733 99.2399 105.002 98.2543 105.127 97.0024C109.62 97.4451 111.905 97.6768 111.981 97.6975Z" fill="#FF5500"/>
<path d="M113.018 109.11C116.495 108.473 119.032 108.179 120.629 108.228C122.226 108.283 121.742 110.393 119.177 114.556L115.258 114.639C113.661 112.848 112.914 111.848 113.018 111.641C113.122 111.434 113.118 110.648 113.007 109.286L113.018 109.11Z" fill="#FFC0BB"/>
<path d="M117.663 104.13L119.043 108.311C118.248 109.964 116.626 110.434 114.179 109.722C114.456 109.141 114.407 108.259 114.034 107.076C113.654 105.859 114.864 104.877 117.663 104.13Z" fill="#FFC0BB"/>
<g opacity="0.6">
<path d="M117.663 104.13L118.317 106.08C117.933 107.512 116.678 108.477 114.324 108.788C114.324 108.363 114.262 107.792 114.034 107.076C113.654 105.859 114.864 104.877 117.663 104.13Z" fill="#FC8D84"/>
</g>
<path d="M109.274 101.08C109.575 101.754 109.378 102.501 108.839 102.74C108.289 102.968 107.615 102.615 107.315 101.941C107.014 101.256 107.211 100.519 107.761 100.281C108.3 100.042 108.984 100.395 109.274 101.08Z" fill="#F99893"/>
<path d="M109.129 104.151C108.777 103.279 108.58 102.345 108.486 101.536C108.455 101.36 108.424 101.183 108.393 101.017C108.248 100.312 108.237 99.5754 108.383 98.8076C108.839 96.3385 110.913 94.4296 113.412 94.1702C116.782 93.8382 119.644 96.4215 119.727 99.7206C120.08 99.5131 120.484 99.4509 120.847 99.6065C121.531 99.8866 121.801 100.82 121.438 101.681C121.085 102.542 120.235 102.999 119.551 102.719C119.454 102.677 119.367 102.625 119.291 102.563C119.084 105.375 116.844 107.605 114.086 107.626C112.012 107.647 109.98 106.391 109.129 104.151Z" fill="#FFC0BB"/>
<path d="M112.717 99.8555C112.831 100.167 112.883 100.488 112.904 100.82C112.918 100.986 112.911 101.152 112.883 101.318C112.862 101.495 112.821 101.671 112.717 101.837C112.593 101.993 112.52 102.045 112.51 102.179C112.479 102.294 112.531 102.408 112.614 102.522C112.79 102.729 113.09 102.854 113.412 102.916C113.09 102.978 112.717 102.937 112.437 102.688C112.302 102.563 112.199 102.366 112.209 102.148C112.23 101.93 112.323 101.827 112.458 101.661C112.52 101.557 112.562 101.412 112.593 101.266C112.634 101.121 112.645 100.966 112.665 100.81C112.686 100.499 112.707 100.177 112.717 99.8555Z" fill="#F99893"/>
<path d="M115.019 99.8555C115.361 99.8036 115.652 100.084 115.6 100.426C115.569 100.634 115.403 100.81 115.185 100.841C114.853 100.903 114.563 100.613 114.604 100.281C114.635 100.063 114.812 99.8866 115.019 99.8555Z" fill="#333333"/>
<path d="M110.726 100.177C111.068 100.125 111.359 100.416 111.307 100.748C111.276 100.966 111.11 101.132 110.903 101.173C110.56 101.225 110.27 100.945 110.322 100.602C110.353 100.395 110.519 100.219 110.726 100.177Z" fill="#333333"/>
<g style="mix-blend-mode:multiply" opacity="0.3">
<path d="M113.464 105.333C112.669 105.382 112.181 105.046 112.002 104.327C112.382 104.036 112.817 104.043 113.308 104.348C113.757 104.05 114.217 103.988 114.687 104.161C114.667 104.894 114.259 105.285 113.464 105.333Z" fill="#F99893"/>
</g>
<path d="M114.48 104.4C114.169 104.566 113.827 104.669 113.474 104.7C113.294 104.714 113.115 104.711 112.935 104.69C112.762 104.662 112.593 104.617 112.427 104.555C112.261 104.493 112.095 104.42 111.95 104.317C111.805 104.227 111.666 104.123 111.535 104.005C111.825 104.192 112.126 104.358 112.458 104.462C112.779 104.566 113.121 104.607 113.464 104.576C113.795 104.545 114.127 104.451 114.438 104.306C114.597 104.237 114.749 104.158 114.895 104.068C115.04 103.978 115.182 103.877 115.32 103.767C115.081 104.026 114.791 104.234 114.48 104.4Z" fill="#F99893"/>
<path d="M114.687 98.7557C114.947 98.6624 115.227 98.6313 115.507 98.6728C115.786 98.7246 116.056 98.8284 116.274 99.0047C116.492 99.15 116.658 99.399 116.772 99.6272C116.668 99.5753 116.274 99.3264 116.108 99.2641C115.901 99.1604 115.672 99.1085 115.455 99.067C115.227 99.0324 114.995 99.0289 114.76 99.0566C114.521 99.0877 114.273 99.1292 114.024 99.2019C114.19 98.9944 114.428 98.8491 114.687 98.7557Z" fill="#FF5500"/>
<path d="M111.058 99.316C110.816 99.316 110.588 99.3471 110.374 99.4094C110.156 99.4716 109.938 99.5546 109.741 99.6895C109.586 99.7621 109.223 100.063 109.129 100.125C109.212 99.8866 109.347 99.6168 109.544 99.4405C109.741 99.2434 110 99.1085 110.27 99.0255C110.54 98.9529 110.83 98.9425 111.089 99.0047C111.359 99.067 111.618 99.1811 111.805 99.3679C111.545 99.3367 111.297 99.316 111.058 99.316Z" fill="#FF5500"/>
<path d="M122.091 134.631C123.114 139.459 121.3 142.447 116.647 143.595C111.995 144.736 106.734 145.365 100.865 145.483L100.699 162.352L97.0281 162.767C89.721 147.62 90.3674 138.553 98.9672 135.565L110.778 134.88L115.61 134.226C118.839 133.21 120.477 132.777 120.526 132.93C120.598 133.158 121.977 134.756 122.091 134.631Z" fill="#FFC0BB"/>
<path d="M128.572 134.258C129.602 139.085 127.791 142.073 123.139 143.221C118.486 144.369 113.225 144.999 107.356 145.109L107.19 161.979L103.519 162.404C96.2122 147.25 96.8586 138.183 105.458 135.202L117.269 134.507L122.102 133.853C125.33 132.836 126.968 132.404 127.017 132.556C127.089 132.784 128.468 134.382 128.572 134.258Z" fill="#FFC0BB"/>
<path d="M129.163 134.745C129.329 138.439 128.489 139.953 127.411 141.157C123.543 145.441 107.885 145.213 107.356 145.109C108.974 148.236 110.398 152.887 111.628 159.063C110.121 159.527 107.242 159.247 102.99 158.223C96.6132 156.687 93.7097 161.875 84.4808 156.708C84.066 156.781 88.4212 150.006 90.3292 143.439C92.2372 136.872 97.6087 133.5 103.488 133.407C105.199 133.376 128.852 127.856 129.163 134.745Z" fill="#FEB546"/>
<path d="M105.241 145.597C105.448 145.566 105.645 145.524 105.842 145.483C106.043 145.434 106.24 145.379 106.433 145.317C106.53 145.289 106.627 145.258 106.724 145.224C106.62 145.203 106.52 145.175 106.423 145.141C106.236 145.068 106.06 144.975 105.894 144.86C105.728 144.746 105.573 144.611 105.438 144.466C105.303 144.321 105.189 144.155 105.085 143.989L105.282 144.207C105.355 144.269 105.427 144.342 105.5 144.404C105.635 144.539 105.801 144.653 105.967 144.746C106.126 144.85 106.295 144.933 106.475 144.995C106.661 145.058 106.848 145.099 107.024 145.099L107.356 145.12L107.066 145.244C106.869 145.338 106.672 145.4 106.475 145.462C106.267 145.514 106.07 145.556 105.863 145.587C105.666 145.618 105.458 145.649 105.251 145.659C105.044 145.68 104.84 145.69 104.639 145.69C104.836 145.659 105.044 145.639 105.241 145.597Z" fill="#DAEEF7"/>
<path d="M112.603 118.416V131.301L105.282 132.961C106.174 131.723 106.775 127.161 107.086 119.277L112.603 118.416Z" fill="#FFC0BB"/>
<path d="M114.978 116.289L128.178 117.326L128.603 120.895L128.52 124.412C128.437 127.836 128.966 131.145 129.174 134.973L127.68 136.177C127.743 136.426 124.666 136.478 118.451 136.333C118.234 136.322 109.42 137.515 110.56 134.382C111.369 132.152 111.867 129.382 111.411 125.45C111.286 124.398 110.83 122.88 110.042 120.895L114.978 116.289Z" fill="#FEB546"/>
<path d="M105.531 123.52C106.07 122.683 108.538 121.556 112.935 120.138C112.935 121.493 112.935 122.202 112.935 122.265L106.215 124.609L105.531 123.52Z" fill="#EDEDED"/>
<path d="M105.531 123.52C106.07 122.683 108.538 121.556 112.935 120.138C112.935 121.493 112.935 122.202 112.935 122.265L106.215 124.609L105.531 123.52Z" fill="#EDEDED"/>
<path d="M106.008 123.437L113.671 119.899V121.269L106.195 123.976L106.008 123.437Z" fill="white"/>
<path d="M106.433 123.437L114.521 120.376V122.742L106.516 123.976L106.433 123.437Z" fill="#EDEDED"/>
<path d="M104.297 124.205C103.654 122.192 103.333 120.387 103.333 118.789C103.754 119.294 104.487 120.764 105.531 123.198L104.297 124.205Z" fill="white"/>
<path d="M104.256 123.976L102.959 120.854V118.571L104.847 123.354L104.256 123.976Z" fill="#EDEDED"/>
<path d="M102.192 120.449V118.789L104.256 123.437L102.192 120.449Z" fill="white"/>
<path d="M104.256 137.754L102.368 133.407V119.08L104.256 123.437V137.754Z" fill="#F5577A"/>
<path d="M116.232 135.596L107.024 137.754V123.437L116.232 121.269V135.596Z" fill="#FF5B7E"/>
<path d="M107.024 123.437C106.215 123.053 104.525 123.188 104.256 123.437C104.401 124.256 106.817 124.412 107.024 123.437Z" fill="#E0E0E0"/>
<path d="M107.024 137.754C107.024 138.107 104.245 138.107 104.245 137.754V123.437C104.525 123.852 106.713 123.841 107.024 123.437V137.754Z" fill="#DE4B6C"/>
<path d="M128.562 131.882C127.079 135.513 114.843 134.621 113.516 134.309L113.401 134.455C112.447 134.143 110.125 133.334 109.617 133.231C109.16 133.148 108.5 133.12 107.636 133.148C107.36 132.961 107.449 132.86 107.906 132.847C108.455 132.826 108.901 132.65 109.108 132.546C109.223 132.484 109.191 132.297 109.129 132.286C107.961 132.141 107.315 132.072 107.19 132.079C105.953 131.574 106.008 131.429 107.356 131.643C108.559 131.83 109.015 131.84 109.16 131.757C109.233 131.726 109.223 131.508 109.16 131.477C108.217 131.041 106.361 130.699 106.921 130.658C107.377 130.627 108.673 130.917 109.171 131.021C109.202 131.031 109.326 130.875 109.202 130.813C108.31 130.367 106.806 130.222 106.91 130.025C107.035 129.817 108.829 130.243 109.461 130.45C109.865 130.595 112.437 131.519 113.889 132.027C114.335 132.183 114.822 132.224 115.289 132.141C118.213 131.602 123.771 129.755 124.31 129.122C124.518 128.88 124.784 126.089 125.109 120.75L131.362 117.845C131.32 122.756 130.387 127.435 128.562 131.882Z" fill="#FFC0BB"/>
<path d="M113.018 109.11C115.382 111.869 117.919 111.575 120.629 108.228C123.595 107.993 126.17 108.65 128.354 110.199C130.539 111.748 132.284 114.266 133.591 117.752C130.453 119.847 127.622 120.895 125.098 120.895L116.201 117.71L110.042 120.895C108.141 120.764 106.381 120.286 104.764 119.463C105.04 113.923 107.792 110.472 113.018 109.11Z" fill="#FEB546"/>
<path d="M124.01 116.175C124.165 116.683 124.3 117.202 124.445 117.72C124.694 118.737 124.932 119.712 125.109 120.75C125.43 120.76 125.783 120.719 126.104 120.667C127.815 120.366 128.946 119.889 130.459 119.266C132.751 118.218 132.44 118.322 133.591 117.752C132.253 118.602 131.528 118.986 130.563 119.474C129.225 120.086 127.95 120.656 126.156 120.978C125.368 121.082 125.14 121.061 124.839 121.03C124.725 120.262 124.59 119.484 124.227 117.772L123.896 116.206L123.543 114.639C123.709 115.148 123.864 115.656 124.01 116.175Z" fill="#07085B"/>
<path d="M109.928 117.14C109.824 117.669 109.751 118.374 109.772 119.038C109.783 119.339 110.011 120.2 110.27 121.071C110.221 121.092 110.173 121.113 110.125 121.134C109.824 120.252 109.565 119.37 109.534 119.059C109.451 118.395 109.503 117.731 109.617 117.077C109.741 116.434 109.907 115.822 110.156 115.189C110.384 114.577 110.664 113.986 111.016 113.436C110.781 114.044 110.571 114.657 110.384 115.272C110.197 115.884 110.031 116.507 109.928 117.14Z" fill="#07085B"/>
<path d="M119.727 99.7206C115.669 98.7384 112.672 96.8676 110.737 94.1079C110.702 91.5973 112.548 90.629 116.274 91.203C121.708 92.033 122.973 97.3137 119.727 99.7206Z" fill="#FF5500"/>
</svg>
